<svg aria-hidden="true" style="position: absolute; width: 0; height: 0; overflow: hidden;" version="1.1" xmlns="http://www.w3.org/2000/svg" xmlns:xlink="http://www.w3.org/1999/xlink">
<defs>
<symbol id="logo" viewBox="0 0 72 32">
<path d="M42.45 15.997c0 0.261-0.008 0.522 0 0.783 0.089 2.652-0.739 5.042-2.069 7.296-0.446 0.756-0.872 1.524-1.256 2.314-0.317 0.649-0.757 1.104-1.442 1.37-0.383 0.148-0.737 0.405-1.058 0.669-1.476 1.218-3.15 2.091-4.94 2.705-1.19 0.408-2.414 0.767-3.706 0.751-0.385-0.005-0.771 0.114-1.157 0.115s-0.772-0.124-1.154-0.108c-1.666 0.072-3.21-0.441-4.742-0.979-1.673-0.587-3.15-1.513-4.539-2.618-1.96-1.557-3.357-3.52-4.385-5.766-0.553-1.21-1.004-2.46-1.131-3.803-0.021-0.223-0.095-0.443-0.161-0.66-0.466-1.507-0.198-2.985 0.090-4.486 0.221-1.148 0.448-2.283 0.877-3.373 1.135-2.884 2.938-5.245 5.434-7.1 2.082-1.545 4.412-2.494 6.944-2.902 2.906-0.468 5.744-0.131 8.497 0.963 1.374 0.547 2.67 1.241 3.802 2.159 1.056 0.856 2.008 1.859 2.908 2.883 0.815 0.928 1.394 2.034 1.911 3.162 0.807 1.762 1.333 3.586 1.28 5.546-0.012 0.362-0.003 0.721-0.003 1.080zM41.335 12.427c-0.081-0.616-0.131-1.329-0.281-2.022-0.429-1.992-1.583-3.547-3.121-4.817-0.873-0.722-1.825-1.35-2.763-1.988-0.318-0.216-0.687-0.415-1.058-0.482-0.954-0.175-1.919-0.34-2.886-0.389-1.678-0.085-3.186-0.518-4.453-1.685-0.933-0.858-1.948-0.941-2.918-0.186-1.099 0.855-2.349 1.358-3.623 1.855-0.934 0.364-1.833 0.823-2.732 1.276-0.75 0.379-1.187 0.971-1.177 1.867 0.006 0.503-0.224 0.923-0.69 1.201-0.427 0.258-0.792 0.513-1.139 0.79l0.022-0.017c-0.993 0.782-1.768 1.661-1.935 3.027-0.132 1.080-0.459 2.148-1.2 3.038-0.238 0.293-0.398 0.659-0.441 1.059l-0.001 0.009c-0.068 0.808-0.040 1.624-0.020 2.437 0.006 0.217 0.1 0.451 0.211 0.642 0.256 0.452 0.535 0.891 0.835 1.315 0.727 1.010 1.359 2.046 1.506 3.329 0.141 1.243 0.742 2.257 1.759 3.031 1.472 1.12 2.892 2.31 4.387 3.402 0.803 0.588 1.663 1.102 2.723 1.221s2.098 0.408 3.048 0.941c0.186 0.102 0.404 0.172 0.635 0.196l0.007 0.001c1.34 0.145 2.581-0.187 3.758-0.814 0.369-0.197 0.749-0.375 1.131-0.546 0.92-0.411 1.94-0.682 2.741-1.255 0.891-0.639 1.845-0.922 2.868-1.101 0.442-0.078 0.803-0.26 1.091-0.588 0.344-0.39 0.661-0.802 1.019-1.179 0.37-0.389 0.637-0.802 0.702-1.356 0.099-0.849 0.463-1.599 0.924-2.319 0.781-1.218 1.225-2.562 1.456-3.992 0.061-0.375 0.095-0.692-0.091-1.023-0.538-0.952-0.318-2.034-0.488-3.049-0.086-0.548 0.112-1.148 0.195-1.832l-0.002 0.001zM34.865 2.91c-0.227-0.251-0.299-0.364-0.402-0.435-0.186-0.128-0.388-0.233-0.585-0.344-1.687-0.95-3.535-1.412-5.423-1.743-0.379-0.068-0.778-0.038-1.166-0.023-0.101 0.004-0.221 0.102-0.285 0.19-0.029 0.040 0.037 0.181 0.092 0.247 0.414 0.491 0.949 0.867 1.56 1.084l0.025 0.008c0.984 0.366 2.12 0.591 3.305 0.623l0.014 0c0.48 0.013 0.958 0.104 1.435 0.169 0.407 0.058 0.814 0.127 1.428 0.223zM20.533 30.284c-1.132-0.925-2.125-1.752-3.135-2.556-0.836-0.666-1.69-1.31-2.545-1.952-0.096-0.072-0.248-0.070-0.458-0.124 1.030 1.728 4.469 4.353 6.138 4.632zM12.903 8.699c0.683-0.522 1.315-1.070 2.008-1.525 0.972-0.633 1.344-1.42 1.114-2.772-0.69 0.564-1.182 1.243-1.714 1.861-0.562 0.651-0.98 1.426-1.448 2.155-0.036 0.059 0.023 0.175 0.040 0.281zM35.933 28.421c-0.637-0.044-1.279 0.069-1.678 0.413-0.758 0.652-1.66 0.98-2.578 1.306-0.482 0.171-0.936 0.422-1.39 0.661-0.063 0.033-0.075 0.209-0.061 0.313 0.004 0.035 0.174 0.092 0.244 0.069 0.824-0.28 1.676-0.507 2.456-0.882 0.957-0.459 1.856-1.040 2.772-1.579 0.096-0.054 0.147-0.181 0.236-0.299zM11.596 19.381c-0.183 0.539-0.147 0.838-0.032 1.157 0.319 0.882 0.513 1.814 1.089 2.585 0.213 0.286 0.257 0.925 0.651 0.788 0.346-0.12-0.059-0.627-0.083-0.968-0.091-1.304-0.777-2.355-1.625-3.561zM17.775 3.142l0.085 0.129c0.476-0.177 0.956-0.343 1.428-0.532 2.485-0.948 3.496-1.371 4.502-1.801l-1.439 0.547c0.205-0.087 0.393-0.226 0.568-0.366 0.049-0.040 0.040-0.175 0.025-0.258-0.008-0.037-0.105-0.078-0.161-0.080-0.101 0.002-0.198 0.019-0.288 0.049l0.007-0.002c-1.384 0.393-2.688 0.974-3.936 1.679-0.292 0.166-0.529 0.422-0.791 0.636zM42.071 17.147c0.084-0.097 0.149-0.137 0.154-0.183 0.135-1.421-0.016-2.829-0.21-4.233-0.010-0.071-0.108-0.172-0.174-0.18-0.073-0.010-0.188 0.051-0.233 0.117-0.070 0.099-0.118 0.219-0.132 0.349l-0 0.003c-0.017 0.255-0.027 0.553-0.027 0.853 0 0.922 0.093 1.823 0.269 2.693l-0.015-0.087c0.044 0.23 0.235 0.432 0.369 0.668zM11.262 13.227c0.54-0.206 0.621-0.579 0.678-0.915 0.141-0.82 0.494-1.609 0.377-2.477-0.564 1.035-1.065 2.083-1.055 3.392zM24.328 31.234c-1.21-0.535-1.538-0.591-2.616-0.441 0.457 0.173 0.868 0.448 1.281 0.452 0.431 0.007 0.898 0.534 1.335-0.011z"></path>
<path d="M26.824 20.593c-0.827-0.015-1.396-0.361-1.817-1.030-0.392-0.624-1.045-0.948-1.642-1.332-0.753-0.484-1.366-1.030-1.54-2.012-0.12-0.666 0.020-1.243 0.29-1.769 0.227-0.439 0.632-0.847 1.058-1.108 0.461-0.283 0.843-0.55 1.056-1.073 0.241-0.602 0.848-0.639 1.386-0.747 0.506-0.102 1.021-0.168 1.521-0.295 0.683-0.174 1.303-0.12 1.801 0.411 0.386 0.412 0.836 0.708 1.338 0.958 0.522 0.26 0.695 0.564 0.531 1.107-0.111 0.369-0.004 0.62 0.134 0.914 0.15 0.321 0.305 0.647 0.408 0.986 0.344 1.128-0.052 2.077-1.111 2.58-0.657 0.311-1.159 0.726-1.323 1.455-0.066 0.294-0.249 0.461-0.508 0.537-0.524 0.153-1.055 0.28-1.584 0.417zM30.297 15.864c0.017-1.987-1.49-3.576-3.45-3.579-1.758 0-3.528 1.19-3.596 3.469-0.055 1.824 1.465 3.524 3.447 3.53 2.413 0.012 3.552-1.663 3.599-3.42zM23.232 17.764c0-0.255 0.024-0.385-0.004-0.503-0.26-1.079-0.429-2.149 0.161-3.188 0.043-0.075-0.056-0.229-0.088-0.346-0.116 0.037-0.255 0.045-0.343 0.117-0.974 0.799-1.409 2.718 0.274 3.92zM26.849 11.787c0.408 0.149 0.64 0.255 0.884 0.321 0.898 0.238 1.664 0.664 2.197 1.451 0.105 0.155 0.241 0.385 0.442 0.209 0.107-0.094 0.142-0.382 0.080-0.526-0.083-0.191-0.272-0.43-0.453-0.468-0.493-0.103-0.763-0.46-1.085-0.771-0.541-0.519-1.144-0.681-2.065-0.215zM26.794 19.609l-0.012-0.075c-0.259 0-0.52-0.022-0.774 0.009-0.131 0.016-0.25 0.127-0.374 0.195 0.113 0.1 0.211 0.257 0.341 0.29 0.696 0.175 1.397 0.213 2.083-0.055 0.117-0.046 0.248-0.106 0.322-0.201 0.065-0.080 0.087-0.223 0.073-0.331-0.005-0.040-0.168-0.101-0.248-0.088-0.471 0.074-0.94 0.167-1.409 0.254l-0.002 0.001zM30.351 17.571c0.482-0.089 0.698-0.361 0.726-0.779 0.021-0.352 0.015-0.705-0.015-1.056-0.008-0.093-0.137-0.175-0.211-0.263-0.107 0.102-0.325 0.238-0.305 0.299 0.196 0.609-0.213 1.155-0.194 1.797v0.001zM34.761 20.323c-0.028 0.014-0.139 0.107-0.261 0.12-0.11 0.013-0.271-0.024-0.339-0.101-0.324-0.36-0.646-0.75-0.95-1.154l-0.032-0.044c-0.080-0.108-0.113-0.401-0.068-0.426 0.151-0.083 0.445-0.17 0.511-0.098 0.388 0.427 0.728 0.897 1.079 1.357 0.034 0.046 0.024 0.125 0.059 0.346zM18.351 23.669c0.179 0.014 0.533 0.025 0.878 0.084 0.086 0.015 0.201 0.183 0.201 0.283s-0.099 0.274-0.185 0.295c-0.671 0.166-1.338 0.207-1.932-0.241-0.059-0.055-0.095-0.133-0.095-0.22 0-0.010 0-0.019 0.001-0.028l-0 0.001c0.012-0.067 0.117-0.16 0.186-0.166 0.258-0.021 0.516-0.009 0.946-0.009zM39.372 9.562l0.254 0.139c-0.072 0.129-0.116 0.336-0.221 0.373-0.483 0.177-0.979 0.319-1.483 0.423-0.145 0.029-0.355-0.114-0.489-0.232-0.154-0.136-0.062-0.431 0.132-0.461 0.571-0.088 1.147-0.155 1.807-0.242zM22.297 26.54c0.268 0.125 0.493 0.161 0.602 0.294 0.3 0.373 0.575 0.764 0.822 1.174 0.12 0.195 0.011 0.406-0.192 0.462-0.111 0.031-0.313-0.059-0.395-0.16-0.305-0.364-0.604-0.768-0.878-1.189l-0.030-0.049c-0.064-0.102 0.035-0.308 0.071-0.532zM32.824 11.018c0.017-0.114 0-0.244 0.054-0.294 0.072-0.066 0.227-0.12 0.302-0.085 0.102 0.049 0.168 0.182 0.237 0.287 0.123 0.175 0.312 0.462 0.496 0.753l0.076 0.129c0.083 0.134 0.194 0.276 0.201 0.42 0.008 0.133-0.073 0.306-0.174 0.398-0.056 0.051-0.286 0.018-0.343-0.053-0.371-0.472-0.817-0.913-0.849-1.555zM33.979 6.010c-0.080 0.482-0.112 0.836-0.206 1.175-0.062 0.189-0.173 0.347-0.319 0.463l-0.002 0.002c-0.107 0.086-0.292 0.073-0.442 0.105-0.012-0.14-0.056-0.286-0.031-0.419 0.078-0.41 0.183-0.815 0.277-1.222 0.008-0.032 0.005-0.065 0.014-0.096 0.074-0.245 0.234-0.433 0.49-0.331 0.129 0.052 0.189 0.277 0.218 0.324zM27.054 9.141c0.226 0.028 0.518 0.043 0.797 0.111 0.095 0.023 0.236 0.194 0.219 0.268-0.029 0.132-0.139 0.306-0.255 0.345-0.086 0.028-0.185 0.044-0.287 0.044-0.099 0-0.195-0.015-0.285-0.043l0.007 0.002c-0.321-0.102-0.62-0.136-0.941-0.002-0.21 0.088-0.408-0.005-0.464-0.214-0.075-0.281 0.136-0.417 0.373-0.457 0.253-0.042 0.515-0.035 0.837-0.053zM32.064 22.97c-0.091 0.398-0.161 0.748-0.259 1.089-0.019 0.067-0.161 0.157-0.22 0.142-0.107-0.026-0.257-0.11-0.279-0.198-0.026-0.097-0.041-0.209-0.041-0.325 0-0.089 0.009-0.177 0.026-0.261l-0.001 0.008c0.075-0.35 0.15-0.682 0.008-1.039-0.067-0.171-0.048-0.444 0.212-0.443 0.14 0 0.342 0.173 0.405 0.316 0.102 0.229 0.109 0.499 0.149 0.71zM28.111 22.868c-0.052 0.094-0.078 0.204-0.146 0.251-0.423 0.291-0.847 0.584-1.292 0.838-0.114 0.065-0.313 0.025-0.458-0.018-0.212-0.063-0.257-0.343-0.080-0.456 0.487-0.312 0.976-0.621 1.478-0.908 0.081-0.046 0.241 0.004 0.345 0.055 0.070 0.035 0.1 0.149 0.154 0.237zM22.723 4.155c0.069 0.040 0.198 0.075 0.215 0.139 0.168 0.618 0.33 1.238 0.463 1.864 0.037 0.174-0.193 0.271-0.347 0.167-0.486-0.327-0.788-1.536-0.505-2.042 0.029-0.050 0.101-0.075 0.174-0.127zM28.724 5.911c-0.146-0.098-0.304-0.147-0.325-0.232-0.023-0.091 0.053-0.247 0.134-0.321 0.335-0.3 0.699-0.594 1.077-0.869l0.040-0.027c0.13-0.092 0.401-0.157 0.502-0.085 0.237 0.166 0.113 0.401-0.053 0.573-0.221 0.232-0.442 0.475-0.697 0.663-0.196 0.14-0.447 0.201-0.678 0.299zM19.489 9.177l-0.355 0.335c-0.102-0.109-0.251-0.2-0.294-0.331-0.171-0.512-0.313-1.033-0.448-1.555-0.019-0.072 0.040-0.219 0.101-0.244 0.098-0.040 0.26-0.056 0.335 0 0.147 0.108 0.315 0.254 0.364 0.418 0.127 0.425 0.193 0.87 0.298 1.377zM15.602 17.757c-0.326 0.596-0.573 1.207-1.18 1.533-0.102 0.055-0.328-0.015-0.437-0.102-0.186-0.148 0-0.27 0.090-0.395 0.285-0.392 0.548-0.8 0.85-1.176 0.078-0.097 0.276-0.145 0.41-0.131 0.092 0.009 0.166 0.164 0.266 0.273zM19.282 17.807c0.17 0.098 0.293 0.128 0.316 0.192 0.038 0.106 0.057 0.273 0 0.346-0.093 0.117-0.253 0.184-0.39 0.263-0.357 0.204-0.708 0.419-1.078 0.594-0.113 0.053-0.317 0.037-0.418-0.035-0.207-0.147-0.134-0.383 0.032-0.487 0.508-0.318 1.043-0.597 1.538-0.873zM37.698 15.106c-0.131 0.295-0.315 0.74-0.533 1.167-0.034 0.066-0.245 0.102-0.334 0.063-0.083-0.038-0.174-0.205-0.157-0.295 0.088-0.475 0.184-0.952 0.332-1.411 0.045-0.14 0.248-0.267 0.404-0.314 0.058-0.017 0.209 0.201 0.281 0.334 0.041 0.075 0.007 0.191 0.007 0.457zM15.5 11.562c0.576 0.517 0.507 1.218 0.571 1.866 0.012 0.12-0.138 0.293-0.258 0.379-0.063 0.046-0.317-0.028-0.323-0.070-0.072-0.474-0.149-1.15-0.207-1.832l-0.010-0.138c-0.005-0.056 0.131-0.125 0.226-0.205zM28.969 27.56c0.097 0.026 0.192 0.056 0.285 0.093 0.346 0.16 0.695 0.316 1.032 0.493 0.161 0.083 0.321 0.187 0.437 0.321 0.133 0.154-0.019 0.451-0.204 0.41-0.629-0.136-1.242-0.325-1.712-0.794-0.069-0.069-0.068-0.243-0.045-0.358 0.013-0.065 0.134-0.11 0.208-0.165zM21.324 11.751c0.033 0.104 0.147 0.265 0.107 0.366-0.211 0.535-0.456 1.059-0.704 1.578-0.030 0.064-0.161 0.12-0.238 0.11-0.068-0.008-0.161-0.103-0.178-0.175-0.132-0.579 0.283-1.615 0.747-1.876 0.048-0.027 0.124-0.004 0.266-0.004zM39.288 20.539c-0.072-0.046-0.223-0.102-0.301-0.209-0.031-0.043 0.070-0.239 0.157-0.301 0.337-0.251 0.726-0.512 1.127-0.753l0.065-0.036c0.111-0.064 0.341-0.069 0.423 0.003 0.075 0.067 0.086 0.321 0.018 0.414-0.345 0.479-0.779 0.845-1.49 0.882zM36.901 24.67c-0.298-0.031-0.428-0.034-0.552-0.062-0.053-0.012-0.131-0.074-0.132-0.114-0.001-0.008-0.001-0.017-0.001-0.026 0-0.086 0.026-0.167 0.070-0.234l-0.001 0.002c0.063-0.071 0.145-0.124 0.238-0.15l0.004-0.001c0.459-0.138 0.919-0.276 1.386-0.388 0.101-0.024 0.314 0.043 0.328 0.1 0.031 0.137-0.006 0.303-0.060 0.441-0.029 0.073-0.142 0.134-0.23 0.16-0.399 0.11-0.8 0.207-1.049 0.272zM23.064 21.355c-0.033 0.14-0.087 0.45-0.19 0.743-0.026 0.073-0.227 0.142-0.319 0.116s-0.201-0.178-0.198-0.274c0.009-0.584 0.042-1.147 0.098-1.704l-0.007 0.082c0.012-0.117 0.161-0.221 0.247-0.331 0.103 0.109 0.27 0.204 0.296 0.329 0.058 0.279 0.046 0.573 0.073 1.038zM44.599 4.422c0-1.146 0.278-2.016 0.833-2.607 0.561-0.599 1.28-0.898 2.157-0.898s1.574 0.258 2.091 0.775c0.524 0.517 0.785 1.342 0.785 2.475s-0.277 1.99-0.832 2.57c-0.555 0.58-1.296 0.87-2.223 0.87-0.801 0-1.457-0.23-1.968-0.69-0.265-0.239-0.473-0.57-0.625-0.992-0.145-0.428-0.218-0.929-0.218-1.502zM47.56 1.012c-0.637 0-1.16 0.283-1.57 0.85-0.404 0.567-0.606 1.398-0.606 2.494s0.192 1.896 0.577 2.4c0.385 0.504 0.896 0.756 1.533 0.756 0.643 0 1.167-0.283 1.571-0.85 0.41-0.573 0.615-1.402 0.615-2.485 0-1.090-0.195-1.89-0.587-2.4-0.385-0.51-0.896-0.765-1.533-0.765zM52.101 7.569h-0.785v-6.613h0.785v3.042h3.075v-3.042h0.785v6.613h-0.785v-3.477h-3.075v3.477zM59.997 7.569h-0.123l0.823-6.613h0.312l1.987 6.113 1.977-6.113h0.312l0.823 6.613h-0.785l-0.653-5.291-1.713 5.291h-0.596l-1.731-5.225-0.634 5.225zM71.35 0.955c0.12 0.12 0.18 0.274 0.18 0.463 0 0.157-0.035 0.318-0.104 0.482l-1.694 3.43v2.239h-0.785v-2.031l-1.892-4.582h0.804l1.807 4.261 1.646-3.316c0.069-0.157 0.104-0.321 0.104-0.491s-0.047-0.302-0.142-0.397l0.076-0.056zM1.334 9.306c0.427-0.021 0.928-0.033 1.432-0.034h0.001c0.478 0 0.978 0.050 1.501 0.15 0.533 0.1 1.056 0.289 1.567 0.566 0.523 0.266 0.962 0.616 1.317 1.049 0.367 0.422 0.661 0.983 0.884 1.682s0.334 1.548 0.334 2.547c0 0.999-0.167 1.898-0.5 2.697-0.322 0.788-0.767 1.393-1.334 1.815-1.1 0.821-2.428 1.232-3.984 1.232-0.545 0-1.117-0.022-1.717-0.067h-0.834v-11.637h1.334zM1.384 20.811c0.233 0.022 0.528 0.033 0.884 0.033s0.622-0.006 0.8-0.017c0.178-0.011 0.422-0.056 0.734-0.133 0.332-0.094 0.619-0.214 0.889-0.361l-0.022 0.011c0.267-0.144 0.544-0.355 0.833-0.632 0.3-0.291 0.555-0.626 0.756-0.994l0.011-0.022c0.478-0.91 0.717-2.098 0.717-3.563 0-1.043-0.128-1.943-0.383-2.697-0.256-0.766-0.55-1.332-0.884-1.698-0.323-0.364-0.718-0.656-1.162-0.857l-0.022-0.009c-0.467-0.222-0.839-0.349-1.117-0.383-0.272-0.032-0.586-0.050-0.905-0.050-0.022 0-0.043 0-0.065 0l0.003-0c-0.367 0-0.723 0.017-1.067 0.050v11.322zM44.869 20.944h-0.216v-11.654h0.567l6.936 10.772v-10.773h0.216v11.654h-1.217l-6.286-9.656v9.656zM62.638 9.289h0.217v6.66c0 1.743-0.344 3.025-1.034 3.846-0.689 0.81-1.589 1.215-2.701 1.215-0.7 0-1.295-0.061-1.784-0.183-0.489-0.133-0.95-0.372-1.384-0.716-0.889-0.688-1.333-2.075-1.333-4.162v-6.66h1.384v6.643c0 2.020 0.306 3.369 0.917 4.046 0.311 0.333 0.634 0.561 0.967 0.683 0.345 0.122 0.756 0.183 1.234 0.183 1.067 0 1.917-0.389 2.551-1.166 0.645-0.788 0.967-2.037 0.967-3.746v-6.643zM68.542 20.944h-1.384v-11.488h-2.884v-0.166h7.169v0.166h-2.901v11.488z"></path>
</symbol>
<symbol id="twitter" viewBox="0 0 32 32">
<path d="M32 4.44c-1.097 0.551-2.37 0.957-3.712 1.152l-0.068 0.008c1.36-0.908 2.398-2.336 2.886-4.054-1.19 0.803-2.582 1.417-4.077 1.758l-0.083 0.016c-1.204-1.432-2.92-2.32-4.792-2.32-3.632 0-6.556 3.296-6.556 7.336 0 0.58 0.044 1.14 0.152 1.672-5.454-0.298-10.28-3.22-13.522-7.672-0.566 1.074-0.898 2.347-0.898 3.697 0 0.004 0 0.008 0 0.011v-0.001c0 2.54 1.17 4.79 2.914 6.094-1.103-0.038-2.121-0.369-2.988-0.918l0.024 0.014v0.080c0 3.566 2.274 6.526 5.256 7.208-0.534 0.162-1.116 0.24-1.72 0.24-0.42 0-0.844-0.026-1.242-0.124 0.85 2.904 3.262 5.040 6.13 5.108-2.232 1.952-5.066 3.128-8.134 3.128-0.538 0-1.054-0.028-1.57-0.1 2.906 2.094 6.35 3.29 10.064 3.29 12.072 0 18.672-11.18 18.672-20.868 0-0.324-0.010-0.638-0.024-0.948 1.308-1.060 2.402-2.32 3.253-3.744l0.035-0.064z"></path>
</symbol>
<symbol id="chef-hat" viewBox="0 0 31 32">
<path d="M21.768 8.572c-0.122-0.002-0.231-0.057-0.304-0.144l-0-0.001c-0.078-0.092-0.125-0.212-0.125-0.343 0-0.002 0-0.003 0-0.005v0c-0.033-1.889-0.712-3.689-1.888-5.011s-2.757-2.063-4.404-2.063-3.228 0.741-4.404 2.063c-1.178 1.322-1.855 3.122-1.888 5.011 0 0.131-0.045 0.256-0.125 0.348-0.074 0.087-0.182 0.143-0.304 0.145h-0c-0.122-0.002-0.23-0.058-0.303-0.144l-0.001-0.001c-0.079-0.092-0.127-0.213-0.127-0.345 0-0.001 0-0.002 0-0.004v0c0.029-2.154 0.796-4.209 2.134-5.722 1.34-1.509 3.141-2.358 5.018-2.358 1.879 0 3.681 0.847 5.020 2.359 1.338 1.51 2.104 3.566 2.132 5.72 0 0.131-0.045 0.256-0.125 0.348-0.073 0.087-0.182 0.143-0.303 0.145h-0z"></path>
<path d="M23.022 19.732c-0.122-0.001-0.231-0.056-0.304-0.143l-0-0.001c-0.080-0.092-0.128-0.213-0.128-0.346 0-0 0-0.001 0-0.001v0c0-0.132 0.044-0.256 0.124-0.351 0.073-0.088 0.181-0.143 0.303-0.146h0c1.637-0.012 3.205-0.759 4.366-2.083 1.162-1.322 1.824-3.116 1.846-4.995-0.017-1.896-0.687-3.707-1.866-5.037s-2.769-2.068-4.422-2.054c-0.635 0-1.266 0.106-1.873 0.32-0.035 0.012-0.076 0.019-0.119 0.019-0.076 0-0.147-0.022-0.207-0.061l0.002 0.001c-0.102-0.066-0.176-0.167-0.207-0.286l-0.001-0.003c-0.012-0.043-0.019-0.093-0.019-0.144 0-0.082 0.018-0.16 0.050-0.231l-0.001 0.003c0.052-0.115 0.142-0.202 0.25-0.243 0.631-0.229 1.359-0.361 2.118-0.361 0.003 0 0.005 0 0.008 0h-0c1.882-0.014 3.69 0.828 5.030 2.342s2.102 3.578 2.118 5.734c-0.023 2.138-0.774 4.179-2.095 5.687-1.32 1.508-3.104 2.362-4.966 2.377h-0.005zM7.066 19.732h-0.004c-1.864-0.015-3.647-0.869-4.966-2.377-1.322-1.508-2.075-3.549-2.095-5.687 0.017-2.157 0.778-4.22 2.118-5.734s3.149-2.356 5.030-2.342c0.719-0.001 1.435 0.12 2.125 0.362 0.058 0.020 0.108 0.051 0.15 0.090l-0-0c0.044 0.041 0.080 0.091 0.106 0.146l0.001 0.003c0.033 0.069 0.053 0.149 0.053 0.235 0 0.118-0.037 0.228-0.101 0.317l0.001-0.002c-0.036 0.049-0.079 0.090-0.13 0.12l-0.002 0.001c-0.057 0.034-0.126 0.055-0.199 0.055-0.047 0-0.092-0.008-0.134-0.024l0.003 0.001c-0.556-0.202-1.198-0.319-1.867-0.319-0.002 0-0.005 0-0.007 0h0c-1.651-0.013-3.242 0.724-4.421 2.054s-1.851 3.141-1.866 5.037c0.020 1.879 0.684 3.672 1.844 4.995 1.162 1.324 2.73 2.071 4.367 2.083 0.060 0.001 0.116 0.015 0.166 0.039l-0.002-0.001c0.051 0.026 0.1 0.061 0.14 0.108 0.075 0.094 0.121 0.215 0.121 0.346 0 0.134-0.047 0.256-0.125 0.352l0.001-0.001c-0.039 0.044-0.085 0.080-0.138 0.105l-0.003 0.001c-0.048 0.023-0.104 0.037-0.164 0.037h-0z"></path>
<path d="M23.022 32h-15.956c-0.122-0.002-0.231-0.057-0.304-0.144l-0-0.001c-0.078-0.092-0.125-0.212-0.125-0.343 0-0.002 0-0.003 0-0.005v0-12.269c0-0.131 0.045-0.256 0.125-0.349 0.074-0.087 0.183-0.142 0.304-0.143h0c0.114 0 0.223 0.051 0.303 0.143 0.081 0.093 0.125 0.218 0.125 0.349v11.773h15.098v-11.773c0-0.131 0.045-0.256 0.125-0.349 0.074-0.087 0.183-0.142 0.304-0.143h0c0.114 0 0.223 0.051 0.303 0.143 0.081 0.093 0.127 0.218 0.127 0.349v12.268c0 0.131-0.046 0.256-0.127 0.348-0.073 0.087-0.182 0.143-0.303 0.145h-0z"></path>
<path d="M26.013 27.222h-15.955c-0.122-0.002-0.231-0.057-0.304-0.144l-0.001-0.001c-0.078-0.092-0.125-0.212-0.125-0.343 0-0.002 0-0.004 0-0.006v0c0-0.131 0.045-0.256 0.125-0.348 0.074-0.087 0.182-0.143 0.304-0.145h15.955c0.115 0 0.224 0.051 0.305 0.145 0.081 0.092 0.125 0.218 0.125 0.348 0 0.132-0.045 0.256-0.125 0.349-0.074 0.087-0.182 0.143-0.304 0.145h-0z"></path>
</symbol>
<symbol id="facebook" viewBox="0 0 32 32">
<path d="M22.512 0.006l-3.616-0.006c-4.064 0-6.69 3.092-6.69 7.876v3.63h-3.638c-0.314 0-0.568 0.294-0.568 0.654v5.26c0 0.36 0.254 0.652 0.568 0.652h3.638v13.276c0 0.36 0.254 0.652 0.568 0.652h4.746c0.314 0 0.568-0.292 0.568-0.652v-13.276h4.252c0.314 0 0.568-0.292 0.568-0.652l0.002-5.26c0-0.174-0.060-0.34-0.166-0.462-0.097-0.116-0.241-0.189-0.402-0.192h-4.254v-3.078c0-1.48 0.308-2.23 1.988-2.23h2.436c0.314 0 0.568-0.294 0.568-0.654v-4.884c0-0.36-0.254-0.652-0.568-0.654z"></path>
</symbol>
<symbol id="instagram" viewBox="0 0 32 32">
<path d="M16.316 32h-0.32c-0.137 0.001-0.299 0.001-0.461 0.001-2.329 0-4.64-0.072-6.933-0.212l0.314 0.015c-2.066-0.126-3.952-0.84-5.454-2.064-1.45-1.182-2.44-2.78-2.942-4.75-0.44-1.716-0.46-3.4-0.484-5.026-0.016-1.17-0.032-2.554-0.036-3.96 0.004-1.414 0.020-2.8 0.036-3.968 0.022-1.628 0.046-3.31 0.484-5.026 0.5-1.97 1.492-3.568 2.94-4.75 1.506-1.224 3.392-1.94 5.46-2.064 2.252-0.138 4.57-0.2 7.084-0.196 0.132-0.001 0.288-0.001 0.443-0.001 2.335 0 4.653 0.071 6.952 0.212l-0.316-0.015c2.066 0.124 3.952 0.84 5.454 2.064 1.45 1.182 2.44 2.78 2.944 4.75 0.436 1.716 0.46 3.4 0.48 5.026 0.018 1.17 0.034 2.554 0.038 3.96v0.006c-0.004 1.408-0.020 2.792-0.036 3.96-0.022 1.63-0.046 3.312-0.482 5.028-0.504 1.97-1.494 3.568-2.944 4.75-1.502 1.224-3.388 1.94-5.454 2.064-1.968 0.125-4.268 0.196-6.585 0.196-0.064 0-0.129-0-0.193-0h0.010zM15.996 29.5c0.143 0.001 0.312 0.001 0.48 0.001 2.271 0 4.526-0.069 6.763-0.206l-0.307 0.015c1.56-0.096 2.916-0.602 4.026-1.508 1.026-0.836 1.734-1.99 2.1-3.43 0.364-1.428 0.386-2.96 0.406-4.444 0.016-1.16 0.032-2.534 0.036-3.928-0.004-1.394-0.020-2.768-0.036-3.93-0.020-1.48-0.040-3.014-0.406-4.44-0.368-1.44-1.074-2.596-2.1-3.432-1.11-0.906-2.464-1.412-4.026-1.508-1.93-0.122-4.186-0.191-6.457-0.191-0.167 0-0.333 0-0.5 0.001l0.026-0c-0.144-0.001-0.314-0.001-0.485-0.001-2.269 0-4.522 0.069-6.756 0.206l0.307-0.015c-1.56 0.096-2.916 0.602-4.026 1.508-1.026 0.836-1.734 1.99-2.1 3.43-0.364 1.428-0.386 2.96-0.406 4.442-0.016 1.162-0.032 2.538-0.036 3.932 0.004 1.39 0.020 2.766 0.036 3.926 0.020 1.484 0.040 3.016 0.406 4.444 0.366 1.44 1.074 2.594 2.1 3.43 1.11 0.906 2.464 1.412 4.026 1.508 2.2 0.134 4.468 0.196 6.928 0.19zM15.936 23.812c-4.312-0.006-7.805-3.5-7.81-7.812v-0c0.005-4.313 3.501-7.809 7.814-7.812h0c4.312 0.006 7.805 3.5 7.81 7.812v0c-0.005 4.313-3.499 7.807-7.812 7.812h-0zM15.936 10.688c-2.931 0.006-5.305 2.381-5.31 5.312v0c0.005 2.933 2.381 5.309 5.314 5.312h0c2.931-0.006 5.305-2.381 5.31-5.312v-0c-0.005-2.932-2.38-5.307-5.312-5.312h-0zM24.626 5.688c-0.018-0.001-0.040-0.001-0.061-0.001-1.036 0-1.876 0.84-1.876 1.876s0.84 1.876 1.876 1.876c0.022 0 0.043-0 0.064-0.001l-0.003 0c1.009-0.034 1.815-0.86 1.815-1.875s-0.805-1.841-1.812-1.875l-0.003-0z"></path>
</symbol>
<symbol id="people" viewBox="0 0 31 32">
<path d="M10.607 0c-3.293 0-5.974 3.077-5.974 6.856s2.682 6.856 5.975 6.856 5.975-3.077 5.975-6.856-2.683-6.856-5.975-6.856zM10.607 12.562c-2.749 0-4.979-2.566-4.979-5.714 0-3.146 2.236-5.713 4.979-5.713 2.749 0 4.979 2.566 4.979 5.713 0 3.149-2.236 5.714-4.979 5.714zM22.845 2.845c-2.474 0-4.484 2.307-4.484 5.146s2.010 5.146 4.484 5.146c2.476 0 4.485-2.307 4.485-5.146s-2.010-5.146-4.485-5.146zM22.845 12c-1.924 0-3.488-1.795-3.488-4.003s1.564-4.003 3.488-4.003c1.925 0 3.489 1.795 3.489 4.003s-1.564 4.003-3.489 4.003z"></path>
<path d="M30.868 20.678c-0.452-3.126-2.145-5.761-5.029-7.142 0 0-1.276 1.107-2.994 1.073-1.875-0.042-2.994-1.073-2.994-1.073s-1.393 0.596-2.516 1.837c-1.039-1.059-2.793-1.92-2.793-1.92s-1.606 1.402-3.941 1.38c-2.45-0.020-3.928-1.381-3.928-1.381s-5.298 2.089-6.415 9.176c0 0-1.198 3.757 1.576 9.372h17.554s1.247-2.488 1.467-4.003h8.731c2.145-3.73 1.284-7.319 1.284-7.319zM18.77 30.857h-16.32c-2.13-4.646-1.208-8.040-1.208-8.040 0.52-3.555 2.511-6.554 5.359-8.077 1.123 0.773 2.513 1.235 4.011 1.235s2.888-0.462 4.035-1.251l-0.024 0.016c2.848 1.523 4.838 4.522 5.359 8.077-0.006 0 0.879 4.178-1.211 8.040zM29.005 26.854h-7.949c0.305-2.019-0.099-4.227-0.099-4.227-0.36-2.496-1.386-4.746-2.89-6.484 0.49-0.513 1.051-0.951 1.669-1.3l0.036-0.019c0.863 0.58 1.926 0.925 3.070 0.925s2.207-0.345 3.090-0.938l-0.020 0.013c2.108 1.157 3.588 3.393 3.972 6.043 0 0 0.727 2.833-0.879 5.987z"></path>
</symbol>
<symbol id="clock" viewBox="0 0 32 32">
<path d="M16 0c-8.823 0-16 7.177-16 16 0 8.822 7.177 16 16 16 8.822 0 16-7.178 16-16 0-8.823-7.178-16-16-16zM16 30.934c-8.234 0-14.934-6.7-14.934-14.934s6.7-14.934 14.934-14.934 14.934 6.7 14.934 14.934-6.7 14.934-14.934 14.934z"></path>
<path d="M16.534 13.878v-5.409c0-0.295-0.239-0.534-0.534-0.534s-0.534 0.239-0.534 0.534v5.409c-0.747 0.2-1.324 0.777-1.52 1.51l-0.003 0.015h-3.809c-0.008-0-0.017-0.001-0.026-0.001-0.295 0-0.534 0.239-0.534 0.534s0.239 0.534 0.534 0.534c0.009 0 0.018-0 0.027-0.001l-0.001 0h3.809c0.238 0.918 1.066 1.6 2.057 1.6 1.178 0 2.134-0.956 2.134-2.132 0-0.992-0.684-1.819-1.6-2.058zM16 17.002c-0.589-0.001-1.066-0.478-1.066-1.068s0.478-1.068 1.068-1.068c0 0 0.001 0 0.001 0h-0c0.589 0.001 1.066 0.478 1.066 1.068s-0.478 1.068-1.068 1.068c-0 0-0.001 0-0.001 0h0zM16 5.268c0.294 0 0.534-0.238 0.534-0.532v-0.534c0-0.295-0.239-0.534-0.534-0.534s-0.534 0.239-0.534 0.534v0 0.534c0 0.294 0.239 0.532 0.534 0.532zM16 26.602c-0.295 0-0.534 0.239-0.534 0.534v0 0.532c0 0.295 0.239 0.534 0.534 0.534s0.534-0.239 0.534-0.534v-0.532c0-0 0-0.001 0-0.001 0-0.294-0.238-0.532-0.532-0.532-0 0-0.001 0-0.001 0h0zM27.734 15.402h-0.534c-0.008-0-0.017-0.001-0.026-0.001-0.295 0-0.534 0.239-0.534 0.534s0.239 0.534 0.534 0.534c0.009 0 0.018-0 0.027-0.001l-0.001 0h0.534c0.008 0 0.017 0.001 0.026 0.001 0.295 0 0.534-0.239 0.534-0.534s-0.239-0.534-0.534-0.534c-0.009 0-0.018 0-0.027 0.001l0.001-0zM4.8 15.402h-0.534c-0.294 0-0.533 0.239-0.533 0.533s0.239 0.533 0.533 0.533v0h0.534c0.008 0 0.017 0.001 0.026 0.001 0.295 0 0.534-0.239 0.534-0.534s-0.239-0.534-0.534-0.534c-0.009 0-0.018 0-0.027 0.001l0.001-0zM23.919 7.261l-0.378 0.378c-0.096 0.097-0.156 0.23-0.156 0.377 0 0.295 0.239 0.534 0.534 0.534 0.148 0 0.281-0.060 0.378-0.157v0l0.376-0.378c0.096-0.096 0.156-0.23 0.156-0.377 0-0.294-0.239-0.533-0.533-0.533-0.147 0-0.28 0.060-0.377 0.156v0zM7.703 23.478l-0.376 0.378c-0.096 0.096-0.156 0.23-0.156 0.377 0 0.294 0.239 0.533 0.533 0.533 0.147 0 0.28-0.060 0.377-0.156l0.378-0.378c0.096-0.097 0.156-0.23 0.156-0.377 0-0.295-0.239-0.534-0.534-0.534-0.147 0-0.281 0.060-0.378 0.157v0zM24.297 23.478c-0.097-0.097-0.23-0.156-0.378-0.156-0.295 0-0.534 0.239-0.534 0.534 0 0.147 0.060 0.281 0.156 0.378v0l0.378 0.376c0.096 0.097 0.23 0.158 0.378 0.158s0.281-0.060 0.378-0.158l0-0c0.097-0.096 0.157-0.23 0.157-0.378s-0.060-0.281-0.157-0.378l-0-0-0.378-0.376zM8.081 7.261c-0.097-0.097-0.23-0.156-0.378-0.156-0.295 0-0.534 0.239-0.534 0.534 0 0.147 0.060 0.281 0.156 0.378v0l0.378 0.376c0.096 0.097 0.23 0.157 0.378 0.157s0.281-0.060 0.378-0.157l0-0c0.097-0.096 0.157-0.23 0.157-0.378s-0.060-0.281-0.157-0.378l-0-0-0.378-0.376z"></path>
</symbol>
<symbol id="chat" viewBox="0 0 32 32">
<path d="M24.621 14.299c0-6.705-6.161-11.099-12.311-11.099-6.175 0-12.31 4.416-12.31 11.099 0 2.529 0.965 5.002 2.719 6.963 0.048 0.057 0.077 0.132 0.077 0.214 0 0.030-0.004 0.058-0.011 0.086l0.001-0.002c-0.55 2.314-1.855 4.403-2.39 5.197-0.092 0.138-0.147 0.307-0.147 0.49 0 0.13 0.028 0.253 0.078 0.364l-0.002-0.006c0.12 0.271 0.357 0.438 0.621 0.438h0.018c2.619-0.074 5.654-0.922 7.529-3.039 0.045-0.053 0.112-0.086 0.187-0.086 0.023 0 0.046 0.003 0.067 0.009l-0.002-0c1.152 0.312 2.353 0.472 3.566 0.472 6.173 0 12.311-4.415 12.311-11.1zM8.96 23.88c-0.085-0.023-0.182-0.037-0.282-0.037-0.338 0-0.64 0.152-0.842 0.392l-0.001 0.002c-1.876 2.116-4.94 2.598-6.39 2.705 0.663-1.050 1.74-2.976 2.245-5.1 0.028-0.11 0.045-0.236 0.045-0.366 0-0.377-0.137-0.721-0.364-0.987l0.002 0.002c-1.594-1.782-2.436-3.923-2.436-6.193 0-5.527 5.102-10.022 11.373-10.022 6.272 0 11.373 4.495 11.373 10.022s-5.101 10.024-11.373 10.024c-0.005 0-0.011 0-0.016 0-1.186 0-2.334-0.162-3.423-0.464l0.090 0.021z"></path>
<path d="M27.635 23.235c2.733-1.585 4.365-4.285 4.365-7.224 0-4.154-3.273-7.703-7.782-8.439-0.256-0.042-0.494 0.163-0.53 0.456-0.037 0.294 0.141 0.567 0.397 0.609 4.045 0.659 6.979 3.761 6.979 7.374 0 2.525-1.44 4.867-3.85 6.264-0.47 0.273-0.721 0.873-0.611 1.462 0.228 1.233 0.714 2.373 1.103 3.146-2.767-0.529-3.817-2.052-4.148-2.711-0.205-0.408-0.589-0.66-1.001-0.66h-0.038c-0.52 0-1.041-0.041-1.546-0.123-0.256-0.041-0.494 0.164-0.53 0.458s0.142 0.566 0.399 0.607c0.549 0.090 1.114 0.134 1.677 0.134h0.038c0.079 0 0.151 0.046 0.188 0.122 1.27 2.524 4.188 3.168 5.385 3.328 0.264 0.035 0.515-0.102 0.655-0.362 0.066-0.12 0.105-0.262 0.105-0.414 0-0.154-0.040-0.299-0.111-0.425l0.002 0.004c-0.361-0.644-1.004-1.933-1.262-3.328-0.004-0.016-0.006-0.035-0.006-0.055 0-0.093 0.048-0.175 0.121-0.223l0.001-0.001zM5.016 12.375c-0.896 0-1.626 0.837-1.626 1.865s0.73 1.864 1.626 1.864c0.896 0 1.626-0.836 1.626-1.864s-0.73-1.865-1.626-1.865zM5.016 15.028c-0.379 0-0.687-0.355-0.687-0.788 0-0.435 0.307-0.788 0.687-0.788 0.379 0 0.687 0.353 0.687 0.788s-0.308 0.788-0.687 0.788zM9.651 12.375c-0.896 0-1.626 0.837-1.626 1.865s0.73 1.864 1.626 1.864c0.896 0 1.624-0.836 1.624-1.864s-0.73-1.865-1.626-1.865zM9.651 15.028c-0.379 0-0.687-0.355-0.687-0.788 0-0.435 0.307-0.788 0.687-0.788 0.378 0 0.686 0.353 0.686 0.788s-0.307 0.788-0.686 0.788zM14.285 12.375c-0.896 0-1.624 0.837-1.624 1.865s0.73 1.864 1.626 1.864c0.896 0 1.624-0.836 1.624-1.864s-0.73-1.865-1.626-1.865zM14.285 15.028c-0.379 0-0.686-0.355-0.686-0.788 0-0.435 0.307-0.788 0.686-0.788s0.687 0.353 0.687 0.788c0 0.435-0.307 0.788-0.687 0.788zM18.92 12.375c-0.896 0-1.626 0.837-1.626 1.865s0.73 1.864 1.626 1.864c0.896 0 1.626-0.836 1.626-1.864s-0.73-1.865-1.626-1.865zM18.92 15.028c-0.379 0-0.687-0.355-0.687-0.788 0-0.435 0.308-0.788 0.687-0.788s0.687 0.353 0.687 0.788c0 0.435-0.308 0.788-0.687 0.788z"></path>
</symbol>
<symbol id="Star" viewBox="0 0 32 32">
<path fill="#ab816c" style="fill: var(--color2, #ab816c)" d="M14.611 3.45c0.48-1.474 2.565-1.474 3.043 0l2.384 7.341c0.215 0.646 0.815 1.104 1.521 1.104 0.001 0 0.001 0 0.002 0h7.717c1.552 0 2.195 1.984 0.941 2.896l-6.243 4.536c-0.401 0.294-0.659 0.764-0.659 1.294 0 0.177 0.029 0.347 0.082 0.506l-0.003-0.011 2.384 7.339c0.48 1.475-1.208 2.701-2.462 1.789l-6.243-4.536c-0.26-0.191-0.587-0.305-0.94-0.305s-0.68 0.114-0.944 0.308l0.005-0.003-6.245 4.536c-1.253 0.912-2.941-0.314-2.462-1.789l2.386-7.339c0.050-0.148 0.078-0.318 0.078-0.495 0-0.53-0.258-1-0.655-1.291l-0.004-0.003-6.245-4.536c-1.253-0.912-0.608-2.896 0.941-2.896h7.718c0.706-0.001 1.305-0.458 1.517-1.093l0.003-0.011 2.386-7.341z"></path>
</symbol>
<symbol id="Star_empty" viewBox="0 0 32 32">
<path fill="none" stroke="#ab816c" style="stroke: var(--color2, #ab816c)" stroke-linejoin="miter" stroke-linecap="butt" stroke-miterlimit="4" stroke-width="1.6" d="M15.106 3.696c0.107-0.323 0.407-0.553 0.761-0.553s0.653 0.229 0.759 0.547l0.002 0.006 2.384 7.341c0.322 0.971 1.222 1.659 2.283 1.659 0 0 0 0 0 0h7.718c0.441 0.001 0.799 0.358 0.799 0.8 0 0.265-0.128 0.499-0.326 0.645l-0.002 0.002-6.245 4.536c-0.602 0.441-0.988 1.146-0.988 1.941 0 0.265 0.043 0.521 0.123 0.759l-0.005-0.017 2.384 7.341c0.025 0.074 0.039 0.159 0.039 0.248 0 0.442-0.358 0.8-0.8 0.8-0.177 0-0.341-0.058-0.474-0.155l0.002 0.002-6.243-4.536c-0.39-0.286-0.88-0.458-1.41-0.458s-1.020 0.172-1.417 0.463l0.007-0.005-6.243 4.536c-0.131 0.096-0.295 0.154-0.472 0.154-0.442 0-0.8-0.358-0.8-0.8 0-0.089 0.015-0.175 0.042-0.256l-0.002 0.006 2.384-7.339c0.075-0.222 0.118-0.477 0.118-0.742 0-0.795-0.386-1.499-0.981-1.936l-0.007-0.005-6.243-4.534c-0.2-0.147-0.329-0.382-0.329-0.646 0-0.441 0.358-0.799 0.799-0.8h7.717c0 0 0 0 0 0 1.061 0 1.961-0.688 2.278-1.642l0.005-0.017 2.384-7.339z"></path>
</symbol>
<symbol id="phone" viewBox="0 0 32 32">
<path d="M29.43 20.47c-0.010 0-0.021 0-0.033 0-2.027 0-3.978-0.324-5.805-0.924l0.131 0.037c-0.894-0.295-1.991-0.025-2.535 0.519l-3.599 2.649c-4.172-2.171-6.742-4.677-8.938-8.711l2.634-3.414c0.687-0.667 0.93-1.642 0.638-2.555-0.577-1.653-0.911-3.559-0.911-5.543 0-0.009 0-0.018 0-0.026v0.001c-0.002-1.381-1.157-2.503-2.57-2.503h-5.876c-1.415 0-2.567 1.122-2.567 2.503 0 15.815 13.201 28.682 29.43 28.682 1.415 0 2.567-1.122 2.567-2.503v-5.711c0-1.378-1.152-2.501-2.567-2.501z"></path>
</symbol>
<symbol id="location" viewBox="0 0 32 32">
<path d="M16 0c6.47 0 11.733 5.131 11.733 11.435 0 2.496-0.811 4.866-2.34 6.854l-8.67 11.381c-0.021 0.026-0.055 0.036-0.079 0.062-0.163 0.178-0.396 0.29-0.656 0.29-0.289 0-0.546-0.138-0.708-0.352l-0.002-0.002c-2.498-3.245-7.074-9.308-8.832-11.595l-0.004-0.004-0.011-0.013c-1.353-1.824-2.165-4.12-2.165-6.605 0-0.006 0-0.012 0-0.017v0.001c0-6.304 5.263-11.435 11.733-11.435zM16 17.604c3.484 0 6.33-2.773 6.33-6.17 0-3.394-2.846-6.17-6.33-6.17s-6.33 2.773-6.33 6.17c0 3.394 2.846 6.17 6.33 6.17z"></path>
</symbol>
<symbol id="menu" viewBox="0 0 60 32">
<path d="M2 0h56c1.105 0 2 0.895 2 2s-0.895 2-2 2h-56c-1.105 0-2-0.895-2-2s0.895-2 2-2z"></path>
<path d="M2 14h56c1.105 0 2 0.895 2 2s-0.895 2-2 2h-56c-1.105 0-2-0.895-2-2s0.895-2 2-2z"></path>
<path d="M2 28h56c1.105 0 2 0.895 2 2s-0.895 2-2 2h-56c-1.105 0-2-0.895-2-2s0.895-2 2-2z"></path>
</symbol>
<symbol id="close" viewBox="0 0 32 32">
<path d="M30.354 32c0.909-0.001 1.645-0.737 1.645-1.646 0-0.455-0.184-0.866-0.483-1.164l-28.704-28.709c-0.298-0.298-0.71-0.482-1.164-0.482-0.909 0-1.647 0.737-1.647 1.647 0 0.455 0.184 0.866 0.482 1.164l28.708 28.708c0.322 0.32 0.743 0.484 1.164 0.484z"></path>
<path d="M1.644 32c0.421 0 0.843-0.16 1.164-0.484l28.709-28.706c0.298-0.298 0.482-0.71 0.482-1.164 0-0.909-0.737-1.647-1.647-1.647-0.455 0-0.866 0.184-1.164 0.482l-28.709 28.709c-0.297 0.298-0.481 0.709-0.481 1.163 0 0.909 0.736 1.646 1.645 1.646h0z"></path>
</symbol>
</defs>
</svg>
