<svg width="96" height="45" fill="none" xmlns="http://www.w3.org/2000/svg"><path d="M56.973 22.234c0 .36-.011.718 0 1.078.12 3.654-.992 6.946-2.777 10.05-.599 1.04-1.17 2.1-1.686 3.187-.425.894-1.016 1.52-1.935 1.887-.514.203-.99.557-1.42.921-1.98 1.678-4.227 2.88-6.63 3.726-1.597.562-3.24 1.057-4.975 1.035-.517-.007-1.035.157-1.553.158-.518.002-1.036-.17-1.549-.148-2.236.098-4.308-.608-6.364-1.349-2.245-.807-4.227-2.084-6.092-3.605-2.632-2.145-4.507-4.847-5.885-7.941-.743-1.668-1.348-3.389-1.519-5.239-.028-.307-.127-.611-.215-.909-.626-2.076-.266-4.111.121-6.179.296-1.582.6-3.144 1.177-4.646 1.523-3.972 3.943-7.225 7.294-9.78 2.794-2.127 5.92-3.435 9.32-3.997 3.9-.645 7.709-.18 11.404 1.326 1.844.754 3.583 1.71 5.102 2.974 1.418 1.18 2.696 2.56 3.904 3.97 1.094 1.28 1.87 2.802 2.565 4.355 1.083 2.428 1.79 4.94 1.718 7.639-.016.499-.005.993-.005 1.487Zm-1.498-4.917c-.108-.848-.175-1.831-.377-2.785-.576-2.744-2.125-4.886-4.189-6.635-1.172-.995-2.45-1.859-3.709-2.738-.426-.298-.922-.571-1.42-.663-1.28-.242-2.575-.468-3.873-.536-2.252-.118-4.275-.714-5.976-2.32C34.68.457 33.317.342 32.016 1.383c-1.475 1.178-3.153 1.87-4.863 2.554-1.254.502-2.46 1.134-3.666 1.758-1.007.523-1.594 1.338-1.58 2.572.008.692-.301 1.27-.926 1.654-.521.322-1.022.678-1.5 1.065-1.332 1.076-2.371 2.288-2.596 4.17-.177 1.488-.616 2.958-1.61 4.184a2.845 2.845 0 0 0-.593 1.472c-.091 1.112-.054 2.237-.027 3.356.008.3.134.62.284.884a21.25 21.25 0 0 0 1.12 1.811c.976 1.392 1.824 2.818 2.02 4.586.19 1.713.997 3.109 2.361 4.174 1.977 1.544 3.882 3.182 5.888 4.686 1.078.81 2.232 1.518 3.654 1.682 1.422.164 2.816.561 4.092 1.296.267.148.56.24.862.272 1.799.198 3.464-.259 5.044-1.122.495-.27 1.005-.517 1.518-.752 1.235-.567 2.603-.94 3.679-1.729 1.196-.88 2.475-1.27 3.848-1.517.593-.106 1.079-.357 1.465-.81.46-.537.887-1.105 1.367-1.623.497-.536.855-1.105.942-1.868.133-1.17.621-2.203 1.24-3.195 1.048-1.676 1.644-3.529 1.954-5.498.081-.517.127-.954-.122-1.409-.721-1.312-.427-2.802-.655-4.199-.116-.755.15-1.581.262-2.523l-.003.002Zm-8.682-13.11c-.305-.345-.401-.501-.54-.598-.248-.177-.52-.32-.785-.474-2.264-1.308-4.744-1.944-7.277-2.401-.51-.092-1.045-.051-1.564-.03-.135.004-.296.14-.382.26-.04.056.05.25.124.342a4.857 4.857 0 0 0 2.127 1.504 13.92 13.92 0 0 0 4.454.858c.644.018 1.286.143 1.927.232.547.08 1.093.175 1.916.308ZM27.556 41.914c-1.52-1.274-2.852-2.413-4.207-3.521a153.804 153.804 0 0 0-3.417-2.688c-.128-.1-.332-.097-.614-.171 1.383 2.38 5.998 5.996 8.238 6.38ZM17.317 12.182c.917-.718 1.765-1.474 2.696-2.1 1.305-.872 1.804-1.957 1.496-3.819-.926.777-1.587 1.713-2.301 2.563-.755.897-1.314 1.965-1.944 2.97-.048.08.03.24.053.386Zm30.91 27.164c-.856-.06-1.716.095-2.253.568-1.018.898-2.228 1.35-3.46 1.798-.647.236-1.257.582-1.866.912-.084.045-.1.287-.083.43.006.049.234.128.328.095 1.106-.387 2.25-.698 3.297-1.215 1.284-.633 2.49-1.433 3.72-2.176.128-.074.196-.249.316-.412Zm-32.664-12.45c-.246.743-.197 1.155-.043 1.593.429 1.215.69 2.498 1.462 3.56.286.394.345 1.275.873 1.085.465-.166-.079-.863-.11-1.334-.123-1.796-1.043-3.243-2.182-4.904Zm8.293-22.369.115.178c.639-.243 1.283-.473 1.916-.733a292.621 292.621 0 0 0 4.11-1.728c.275-.12.528-.31.763-.504.065-.055.054-.24.033-.356-.01-.051-.14-.107-.215-.11a1.317 1.317 0 0 0-.378.064c-1.857.54-3.608 1.341-5.283 2.313-.392.228-.71.581-1.061.876Zm32.607 19.291c.112-.133.2-.19.206-.252.181-1.957-.02-3.896-.282-5.83-.013-.098-.145-.237-.234-.249-.099-.013-.252.07-.312.161-.099.144-.16.31-.178.485a19.053 19.053 0 0 0 .305 4.765c.06.317.315.596.495.92Zm-41.349-5.4c.725-.283.833-.797.911-1.26.19-1.13.663-2.217.506-3.411-.757 1.425-1.429 2.87-1.416 4.671ZM32.65 43.221c-1.624-.737-2.064-.814-3.51-.607.613.238 1.164.616 1.719.622.578.01 1.205.736 1.792-.015Z" fill="#2E2520"/><path d="M36 28.565c-1.11-.02-1.874-.497-2.439-1.418-.526-.86-1.401-1.305-2.203-1.835-1.01-.667-1.833-1.42-2.066-2.771-.162-.917.026-1.713.389-2.437.304-.605.848-1.166 1.419-1.526.619-.39 1.132-.758 1.418-1.479.323-.829 1.138-.879 1.86-1.028.68-.14 1.371-.23 2.041-.406.917-.24 1.748-.166 2.418.566.517.568 1.122.975 1.796 1.32.7.358.932.777.712 1.525-.149.507-.005.853.18 1.259.202.442.41.891.548 1.358.461 1.553-.07 2.861-1.491 3.553-.88.429-1.555 1-1.775 2.005a.928.928 0 0 1-.682.74c-.703.211-1.416.385-2.125.574Zm4.662-6.514c.023-2.737-2-4.925-4.63-4.929-2.36 0-4.735 1.639-4.827 4.778-.074 2.513 1.967 4.853 4.627 4.862 3.239.017 4.767-2.29 4.83-4.71Zm-9.483 2.617c0-.35.033-.53-.005-.692-.349-1.487-.575-2.96.216-4.392.057-.102-.075-.314-.119-.476-.155.052-.343.062-.46.161-1.307 1.1-1.89 3.743.368 5.4Zm4.855-8.232c.547.205.86.351 1.186.442 1.205.327 2.233.915 2.949 1.999.14.213.323.53.593.287.143-.13.19-.527.107-.725-.111-.264-.365-.592-.608-.644-.662-.142-1.025-.634-1.456-1.063-.725-.714-1.536-.938-2.77-.296ZM35.96 27.21l-.016-.104c-.348 0-.698-.03-1.04.013-.176.022-.335.175-.502.27.152.137.284.353.459.398.933.242 1.875.293 2.795-.076.158-.064.333-.147.432-.276.087-.111.115-.307.098-.456-.007-.055-.225-.138-.333-.12-.632.1-1.262.23-1.89.349l-.003.002Zm4.775-2.808c.647-.123.936-.497.974-1.072.028-.485.02-.971-.02-1.455-.011-.128-.185-.241-.283-.362-.144.14-.436.328-.41.412.263.84-.286 1.59-.26 2.476v.001ZM46.653 28.192c-.037.02-.187.148-.35.166-.147.017-.363-.033-.454-.14a23.694 23.694 0 0 1-1.318-1.65c-.108-.15-.152-.553-.09-.588.201-.114.597-.233.685-.134.52.588.977 1.235 1.448 1.87.045.063.031.172.079.476ZM24.629 32.8c.24.02.715.035 1.178.117.116.02.27.252.27.39s-.133.376-.249.406c-.9.229-1.796.285-2.593-.332a.415.415 0 0 1-.126-.34c.017-.092.157-.22.25-.227.346-.03.693-.014 1.27-.014ZM52.841 13.37l.34.192c-.096.177-.155.463-.296.514-.648.244-1.313.439-1.99.582-.194.04-.477-.157-.656-.319-.207-.187-.084-.594.177-.634.767-.121 1.54-.214 2.425-.334ZM29.925 36.757c.36.172.661.22.808.404.403.513.772 1.053 1.104 1.617.162.269.014.56-.258.637-.15.042-.42-.083-.53-.221a17.571 17.571 0 0 1-1.22-1.705c-.086-.14.048-.424.096-.732ZM44.054 15.376c.023-.157 0-.336.072-.406.097-.09.305-.165.405-.116.136.067.225.25.319.394.26.402.519.805.767 1.216.111.184.26.38.27.578.01.184-.098.422-.233.548-.075.07-.384.025-.46-.073-.498-.65-1.095-1.257-1.14-2.141ZM45.604 8.478c-.108.663-.15 1.151-.276 1.619a1.34 1.34 0 0 1-.432.64c-.142.118-.392.101-.593.144-.016-.193-.075-.394-.04-.576.105-.565.245-1.123.371-1.683.01-.044.007-.09.02-.133.099-.338.314-.596.657-.456.173.07.254.38.293.445ZM36.31 12.79c.302.039.694.06 1.068.153.128.031.317.267.294.369-.038.182-.186.42-.342.475-.247.079-.511.08-.759.004-.431-.141-.833-.188-1.263-.004-.282.122-.548-.006-.623-.294-.101-.387.183-.574.501-.629.34-.058.69-.048 1.123-.074ZM43.033 31.839c-.122.548-.215 1.03-.347 1.5-.026.092-.216.216-.296.195-.143-.036-.345-.152-.374-.272a1.858 1.858 0 0 1-.021-.795c.1-.482.2-.94.01-1.432-.09-.236-.064-.612.285-.61.188 0 .459.238.543.435.138.316.147.687.2.979ZM37.729 31.698c-.07.128-.105.28-.197.346-.567.4-1.136.803-1.733 1.154-.153.09-.42.035-.615-.025-.286-.086-.345-.47-.108-.627a46.81 46.81 0 0 1 1.984-1.25c.107-.064.323.004.462.075.095.049.135.206.207.327ZM30.496 5.924c.092.055.266.103.289.19.225.852.443 1.706.622 2.568.05.24-.26.373-.467.23-.652-.45-1.057-2.116-.677-2.813.039-.069.135-.104.233-.175ZM38.55 8.342c-.196-.134-.408-.203-.436-.319-.031-.126.07-.34.18-.442.478-.438.979-.85 1.499-1.235.175-.127.539-.216.674-.117.318.229.15.552-.071.789-.297.318-.593.654-.936.912-.263.194-.6.277-.91.412ZM26.157 12.84l-.477.462c-.136-.15-.337-.276-.394-.456a33.655 33.655 0 0 1-.602-2.142c-.025-.099.054-.301.135-.335.132-.056.35-.078.45 0 .197.15.423.35.488.575.17.585.26 1.198.4 1.896ZM20.94 24.658c-.438.822-.77 1.663-1.584 2.111-.137.075-.44-.02-.586-.14-.25-.203 0-.372.12-.545.383-.54.736-1.101 1.142-1.62.105-.133.37-.2.551-.181.123.012.223.226.357.375ZM25.878 24.728c.228.135.394.175.424.264.051.146.078.376 0 .477-.125.161-.339.254-.523.362-.478.281-.95.578-1.447.818a.645.645 0 0 1-.56-.048c-.278-.202-.18-.527.043-.67.682-.439 1.4-.822 2.063-1.203ZM50.595 21.007c-.176.406-.423 1.019-.716 1.608-.045.091-.328.14-.449.086-.111-.051-.233-.282-.21-.407.117-.654.247-1.311.445-1.943.06-.193.333-.368.543-.433.077-.024.28.276.377.46.055.103.01.262.01.63ZM20.802 16.125c.774.712.682 1.678.768 2.57.016.166-.185.403-.346.523-.084.063-.426-.038-.434-.096a52.562 52.562 0 0 1-.29-2.715c-.006-.077.175-.171.302-.282ZM38.88 38.161c.13.035.257.078.382.128.465.221.932.436 1.386.68.215.114.431.258.586.441.179.213-.025.621-.275.565-.843-.186-1.667-.447-2.297-1.094-.093-.095-.091-.334-.061-.493.018-.09.18-.151.28-.227ZM28.62 16.385c.044.143.197.366.143.505-.283.737-.61 1.458-.944 2.173-.041.088-.216.166-.32.152-.09-.012-.215-.142-.239-.241-.176-.797.381-2.224 1.003-2.584.064-.037.166-.005.356-.005ZM52.728 28.49c-.097-.063-.299-.14-.404-.288-.042-.06.094-.329.21-.415a19.083 19.083 0 0 1 1.601-1.087c.149-.089.458-.095.568.005.1.093.115.442.024.57-.462.66-1.045 1.165-1.998 1.215ZM49.525 34.18c-.4-.042-.574-.047-.74-.085-.071-.016-.176-.102-.177-.157a.602.602 0 0 1 .09-.357.664.664 0 0 1 .324-.207c.617-.19 1.234-.38 1.86-.535.136-.033.422.059.44.138.04.19-.008.418-.08.608-.039.1-.191.185-.308.221-.536.15-1.074.286-1.409.374ZM30.955 29.614c-.044.192-.116.62-.255 1.022-.034.1-.304.197-.428.16-.124-.037-.27-.246-.265-.377.012-.745.049-1.492.122-2.234.016-.162.216-.304.331-.455.139.15.362.281.397.453.078.385.062.79.098 1.43ZM59.856 6.292c0-1.58.373-2.777 1.118-3.592.753-.824 1.718-1.236 2.895-1.236 1.176 0 2.112.355 2.806 1.067.702.711 1.054 1.848 1.054 3.41 0 1.56-.373 2.74-1.118 3.539-.745.798-1.74 1.197-2.984 1.197-1.075 0-1.955-.317-2.64-.95-.356-.33-.636-.785-.839-1.366-.194-.59-.292-1.28-.292-2.07Zm3.974-4.698c-.855 0-1.557.39-2.107 1.17-.542.782-.813 1.927-.813 3.436 0 1.51.258 2.612.775 3.306.516.694 1.202 1.04 2.057 1.04.863 0 1.566-.39 2.107-1.17.55-.79.826-1.93.826-3.423 0-1.5-.263-2.603-.787-3.305-.517-.703-1.203-1.054-2.058-1.054ZM69.925 10.625H68.87v-9.11h1.054v4.19h4.126v-4.19h1.054v9.11h-1.054V5.836h-4.126v4.789ZM80.523 10.625h-.165l1.104-9.11h.42l2.666 8.42 2.653-8.42h.42l1.104 9.11h-1.054l-.876-7.288-2.298 7.288h-.8l-2.324-7.196-.85 7.196ZM95.759 1.516c.16.164.241.377.241.637 0 .217-.047.438-.14.664l-2.272 4.724v3.084h-1.054V7.827l-2.54-6.311h1.08l2.425 5.869 2.209-4.568c.093-.217.14-.443.14-.677 0-.234-.064-.416-.19-.546l.1-.078ZM1.79 13.018c.656-.03 1.298-.046 1.924-.046.642 0 1.313.07 2.014.207a7.039 7.039 0 0 1 2.103.78c.701.367 1.29.848 1.768 1.444.492.581.887 1.353 1.186 2.316.298.964.447 2.133.447 3.51 0 1.375-.223 2.613-.67 3.714-.433 1.085-1.03 1.919-1.79 2.5-1.478 1.13-3.26 1.697-5.349 1.697-.73 0-1.499-.031-2.304-.092H0v-16.03h1.79Zm.067 15.846c.313.031.709.046 1.186.046s.835-.007 1.074-.023c.239-.015.567-.076.985-.183a5.675 5.675 0 0 0 1.163-.482c.358-.198.731-.489 1.119-.871a5.69 5.69 0 0 0 1.03-1.399c.64-1.254.961-2.89.961-4.907 0-1.438-.171-2.676-.514-3.715-.343-1.055-.739-1.835-1.186-2.34a4.627 4.627 0 0 0-1.589-1.192c-.626-.306-1.126-.482-1.5-.527a10.756 10.756 0 0 0-1.297-.07c-.492 0-.97.024-1.432.07v15.593ZM60.22 29.048h-.291V12.996h.76l9.308 14.836V12.995h.291v16.053h-1.633l-8.436-13.3v13.3ZM84.066 12.995h.291v9.173c0 2.4-.462 4.166-1.387 5.297-.925 1.117-2.133 1.675-3.625 1.675-.94 0-1.738-.085-2.394-.253a5.106 5.106 0 0 1-1.857-.986c-1.193-.948-1.79-2.859-1.79-5.733v-9.172h1.857v9.15c0 2.782.41 4.64 1.23 5.572.418.458.85.772 1.298.94.463.168 1.015.252 1.656.252 1.432 0 2.573-.535 3.424-1.605.865-1.085 1.297-2.805 1.297-5.16v-9.15ZM91.99 29.048h-1.857V13.225h-3.87v-.23h9.62v.23H91.99v15.823Z" fill="#2E2520"/></svg>